<?xml version="1.0" encoding="utf-8"?>
<!-- Generator: Adobe Illustrator 16.0.0, SVG Export Plug-In . SVG Version: 6.00 Build 0)  -->
<!DOCTYPE svg PUBLIC "-//W3C//DTD SVG 1.1//EN" "http://www.w3.org/Graphics/SVG/1.1/DTD/svg11.dtd">
<svg version="1.1" id="Layer_1" xmlns="http://www.w3.org/2000/svg" xmlns:xlink="http://www.w3.org/1999/xlink" x="0px" y="0px"
	 width="512px" height="512px" viewBox="0 0 512 512" enable-background="new 0 0 512 512" xml:space="preserve">
<g>
	<g>
		<path d="M337.118,269.871c25.13,19.968,45.376,48.935,57.969,83.351c66.033-3.371,112.442-19.337,112.442-19.337
			c0-61.853-25.654-116.077-64.162-146.426c-16.932,20.482-42.531,33.537-71.18,33.537c-8.823,0-17.355-1.242-25.436-3.554
			c0.387,3.415,0.593,6.884,0.593,10.402C347.345,242.999,343.651,257.29,337.118,269.871z"/>
		<path d="M174.883,269.871c-6.532-12.581-10.227-26.872-10.227-42.027c0-3.51,0.205-6.971,0.59-10.378
			c-7.717,2.093-15.833,3.218-24.213,3.218c-28.649,0-54.25-13.055-71.181-33.537C31.344,217.495,5.69,271.719,5.69,333.572
			c0,0,44.998,16.175,111.316,19.4C129.605,318.666,149.814,289.791,174.883,269.871z"/>
	</g>
	<path d="M391.343,433.041c0-61.853-25.654-116.077-64.162-146.426c-16.932,20.482-42.531,33.537-71.18,33.537
		c-28.649,0-54.25-13.055-71.181-33.537c-38.508,30.349-64.163,84.573-64.163,146.426c0,0,55.51,19.959,134.096,19.959
		S391.343,433.041,391.343,433.041z"/>
	<circle cx="256.001" cy="227.844" r="74.844"/>
	<path d="M372.188,53.844c-41.336,0-74.845,33.508-74.845,74.844c0,6.554,0.849,12.909,2.431,18.967
		c19.537,10.687,34.737,28.307,42.3,49.551c9.217,4.057,19.397,6.325,30.114,6.325c41.334,0,74.844-33.508,74.844-74.844
		S413.522,53.844,372.188,53.844z"/>
	<path d="M213.452,147.323c1.579-6.053,2.425-12.401,2.425-18.948c0-41.336-33.51-74.844-74.844-74.844
		c-41.336,0-74.845,33.508-74.845,74.844s33.509,74.844,74.845,74.844c10.484,0,20.461-2.164,29.52-6.057
		C178.2,175.716,193.632,157.968,213.452,147.323z"/>
</g>
</svg>
